<?xml version="1.0" standalone="no"?>
<!DOCTYPE svg PUBLIC "-//W3C//DTD SVG 1.0//EN" "http://www.w3.org/TR/2001/REC-SVG-20010904/DTD/svg10.dtd">
<svg xmlns="http://www.w3.org/2000/svg" xmlns:xlink="http://www.w3.org/1999/xlink" id="body_1" width="89" height="67">

<g transform="matrix(0.1704981 0 0 0.17091838 0 0)">
	<g transform="matrix(1.3154362 0 0 1.3154362 71.577194 -0)">
        <path d="M195 299C 130.00002 299 65.50002 299 1.000026 299C 1.000017 199.6667 1.000017 100.33339 1.000009 1.000066C 96.99995 1.000044 192.9999 1.000044 288.99988 1.000022C 288.99994 100.333275 288.99994 199.66655 288.99997 298.9999C 257.83334 299 226.66667 299 195 299zM166.35185 64.50638C 163.23363 64.067055 160.11542 63.627728 156.25035 62.93279C 154.16661 62.677853 152.08289 62.42292 149.15569 61.989925C 147.43657 62.03805 145.71744 62.086178 143.13312 61.978436C 141.08813 62.04187 139.04317 62.10531 136.18283 62.05543C 133.45186 62.47033 130.72087 62.885227 127.20069 63.15371C 122.79981 64.1539 118.39893 65.1541 113.249214 66.13062C 108.83201 67.75098 104.4148 69.37132 99.27568 71.057915C 95.16381 73.31525 91.05194 75.57258 86.25472 77.97498C 83.461754 79.86735 80.66879 81.75972 77.23813 83.92212C 74.16721 86.64729 71.09629 89.37246 67.39764 92.32072C 61.982437 98.802925 56.013165 104.90585 51.263836 111.84387C 40.340813 127.80069 34.996826 145.8488 33.01438 165.89919C 33.305363 169.61394 33.596344 173.32867 33.698055 177.91165C 34.14109 181.27425 34.584126 184.63683 34.899223 188.83517C 35.977303 193.55518 37.055378 198.27516 38.111732 203.74525C 39.98554 208.53667 41.859344 213.32806 43.924473 218.81357C 46.012386 222.54001 48.1003 226.26645 50.320576 230.65263C 53.09886 234.38136 55.87715 238.11008 58.90999 242.40103C 61.30752 244.91943 63.705055 247.43784 66.345146 250.57454C 69.84851 253.53601 73.35188 256.4975 77.20333 259.99738C 80.45638 262.0337 83.709435 264.06998 87.338165 266.67493C 90.5111 268.2708 93.684044 269.8667 97.36529 271.90982C 100.53057 273.0452 103.695854 274.18057 107.38406 275.79266C 110.92124 276.80438 114.45842 277.81607 118.76603 279.07043C 122.51002 279.6232 126.25401 280.17596 130.79219 281.02283C 134.52704 281.27887 138.26187 281.5349 142.89555 281.94275C 146.92874 281.5859 150.96193 281.22906 155.84602 280.9779C 160.22957 280.24963 164.61311 279.52133 169.74547 278.81387C 184.3265 274.8966 197.95616 268.9003 209.90514 259.582C 235.0219 239.99487 249.7249 214.30217 252.89114 182.61818C 254.81706 163.34583 251.75517 144.54797 243.15195 126.17805C 241.88383 123.74407 240.61574 121.310104 239.13596 118.1966C 237.1387 115.111626 235.14146 112.02666 232.97902 108.2711C 230.03645 105.04378 227.0939 101.816444 224.2392 97.90543C 221.52672 95.18483 218.81424 92.46423 215.78197 89.1702C 212.85094 86.88162 209.9199 84.59305 206.38702 81.91136C 203.59058 80.30249 200.79414 78.69362 197.36485 76.80187C 194.95122 75.39968 192.5376 73.99749 189.59395 72.136925C 187.43552 71.286575 185.2771 70.43623 182.58954 69.161224C 180.39143 68.50568 178.19333 67.85013 175.33978 66.79909C 172.56186 66.163345 169.78395 65.5276 166.35185 64.50638z" stroke="none" fill="#FEFFFF" fill-rule="nonzero" />
        <path d="M243.27771 126.877266C 251.75517 144.54797 254.81706 163.34583 252.89114 182.61818C 249.7249 214.30217 235.0219 239.99487 209.90514 259.582C 197.95616 268.9003 184.3265 274.8966 169.37932 278.43457C 175.57997 263.56802 182.1943 249.10199 188.68465 234.58054C 190.63263 230.22215 192.23499 225.70929 194.45325 221.18015C 198.60536 221.0931 202.29993 221.0931 206.82693 221.0931C 206.13837 215.74716 205.56898 211.32646 205.04156 206.55032C 216.64703 181.2911 228.18854 156.377 239.82228 131.50606C 240.62123 129.79807 242.10983 128.41267 243.27771 126.877266z" stroke="none" fill="#02C4EE" fill-rule="nonzero" />
        <path d="M43.73315 218.11948C 41.859344 213.32806 39.98554 208.53667 38.466087 203.32523C 39.989277 201.37878 41.483597 200.00406 42.276474 198.30247C 49.99475 181.73848 57.506054 165.07788 65.25143 148.52673C 76.38287 124.73985 87.69412 101.03709 98.81029 77.24313C 99.680305 75.380875 99.623604 73.08567 99.997604 70.991684C 104.4148 69.37132 108.83201 67.75098 113.62282 66.526596C 113.40316 68.79448 112.97724 70.74017 112.189644 72.5264C 106.83498 84.67047 101.40409 96.78094 95.64041 109.045494C 94.89393 111.79368 94.504845 114.39862 93.76219 117.04709C 92.37076 118.52358 91.085815 119.83831 90.33448 121.408394C 84.812416 132.94806 79.34155 144.51306 73.96144 156.11963C 66.419464 172.39001 59.07126 188.7511 51.416298 204.96768C 49.257305 209.5414 46.31577 213.74573 43.73315 218.11948z" stroke="none" fill="#004693" fill-rule="nonzero" />
        <path d="M99.63664 71.024796C 99.623604 73.08567 99.680305 75.380875 98.81029 77.24313C 87.69412 101.03709 76.38287 124.73985 65.25143 148.52673C 57.506054 165.07788 49.99475 181.73848 42.276474 198.30247C 41.483597 200.00406 39.989277 201.37878 38.47695 202.95016C 37.055378 198.27516 35.977303 193.55518 35.30678 188.36345C 36.799286 186.28502 38.118145 184.7885 38.934525 183.0553C 54.401073 150.2195 69.82902 117.36542 85.1781 84.474594C 86.131905 82.430725 86.36933 80.05254 86.94006 77.82991C 91.05194 75.57258 95.16381 73.31525 99.63664 71.024796z" stroke="none" fill="#013D8D" fill-rule="nonzero" />
        <path d="M43.82881 218.46652C 46.31577 213.74573 49.257305 209.5414 51.416298 204.96768C 59.07126 188.7511 66.419464 172.39001 73.96144 156.11963C 79.34155 144.51306 84.812416 132.94806 90.33448 121.408394C 91.085815 119.83831 92.37076 118.52358 93.88429 117.50232C 94.27821 126.610374 94.196465 135.30675 93.75215 144.03577C 92.47905 144.94908 91.23573 145.66695 90.71224 146.73695C 87.42505 153.45589 84.263954 160.23741 81.12459 167.02757C 71.78091 187.237 62.488968 207.47047 53.074856 227.64697C 52.6032 228.65784 51.172417 229.22118 50.188217 229.99289C 48.1003 226.26645 46.012386 222.54001 43.82881 218.46652z" stroke="none" fill="#00509A" fill-rule="nonzero" />
        <path d="M50.2544 230.32275C 51.172417 229.22118 52.6032 228.65784 53.074856 227.64697C 62.488968 207.47047 71.78091 187.237 81.12459 167.02757C 84.263954 160.23741 87.42505 153.45589 90.71224 146.73695C 91.23573 145.66695 92.47905 144.94908 93.872345 144.49146C 94.27525 153.27737 94.1954 161.64023 93.75084 170.03662C 92.4055 171.10088 91.06756 171.96483 90.49716 173.187C 79.82885 196.04555 69.25169 218.94662 58.655434 241.8388C 55.87715 238.11008 53.09886 234.38136 50.2544 230.32275z" stroke="none" fill="#0059A1" fill-rule="nonzero" />
        <path d="M197.9977 77.08474C 200.79414 78.69362 203.59058 80.30249 206.68118 82.46495C 206.35991 84.34437 205.7461 85.67095 205.12883 86.99592C 194.29427 110.25241 183.42325 133.49205 172.6657 156.7841C 171.15846 160.04755 170.20729 163.56781 168.5452 167.05783C 164.39424 167.08824 160.69684 167.03003 157.04085 166.60446C 160.09297 159.40575 162.98111 152.51723 166.13815 145.75421C 174.42972 127.992 182.86816 110.29841 191.18166 92.546364C 193.5698 87.44688 195.73193 82.24154 197.9977 77.08474z" stroke="none" fill="#0092CA" fill-rule="nonzero" />
        <path d="M168.99872 166.9692C 170.20729 163.56781 171.15846 160.04755 172.6657 156.7841C 183.42325 133.49205 194.29427 110.25241 205.12883 86.99592C 205.7461 85.67095 206.35991 84.34437 206.98209 82.661514C 209.9199 84.59305 212.85094 86.88162 215.88608 89.83453C 207.0241 109.59729 197.99765 128.66774 189.12628 147.81004C 186.21071 154.10115 183.69684 160.57841 180.54547 167.05792C 176.394 167.0866 172.69637 167.0279 168.99872 166.9692z" stroke="none" fill="#009BD1" fill-rule="nonzero" />
        <path d="M197.68127 76.943306C 195.73193 82.24154 193.5698 87.44688 191.18166 92.546364C 182.86816 110.29841 174.42972 127.992 166.13815 145.75421C 162.98111 152.51723 160.09297 159.40575 156.60248 166.69427C 149.02568 167.22679 149.01509 167.22675 149.04497 160.41754C 149.05144 158.94322 149.16429 157.46938 149.58319 155.98602C 151.09016 154.71738 152.63225 153.64388 153.33421 152.1702C 161.1267 135.8114 168.84912 119.41844 176.4643 102.97628C 181.1304 92.90156 185.57816 82.72572 190.12396 72.5953C 192.5376 73.99749 194.95122 75.39968 197.68127 76.943306z" stroke="none" fill="#018AC4" fill-rule="nonzero" />
        <path d="M180.99927 166.97055C 183.69684 160.57841 186.21071 154.10115 189.12628 147.81004C 197.99765 128.66774 207.0241 109.59729 216.04596 90.12125C 218.81424 92.46423 221.52672 95.18483 224.13269 98.63609C 218.31128 111.66653 212.55563 123.94758 206.89415 136.27188C 202.2052 146.47902 197.62726 156.73717 192.54611 167.05925C 188.39445 167.08737 184.69687 167.02896 180.99927 166.97055z" stroke="none" fill="#00A6D8" fill-rule="nonzero" />
        <path d="M58.782707 242.11992C 69.25169 218.94662 79.82885 196.04555 90.49716 173.187C 91.06756 171.96483 92.4055 171.10088 93.86908 170.49277C 94.273026 179.61131 94.19403 188.30722 93.75247 197.0359C 92.11264 198.68788 90.476944 200.13693 89.614746 201.95319C 82.65587 216.6122 75.86648 231.3516 68.946724 246.02937C 68.26945 247.46597 67.06327 248.65324 66.10259 249.95624C 63.705055 247.43784 61.30752 244.91943 58.782707 242.11992z" stroke="none" fill="#0162A8" fill-rule="nonzero" />
        <path d="M193.99568 221.26721C 192.23499 225.70929 190.63263 230.22215 188.68465 234.58054C 182.1943 249.10199 175.57997 263.56802 169.00491 278.42416C 164.61311 279.52133 160.22957 280.24963 155.4219 280.54034C 155.29184 278.82523 155.37212 277.4484 155.91223 276.28513C 163.2601 260.46008 170.7254 244.68929 178.00871 228.83482C 179.08162 226.49931 179.36624 223.8017 180.41068 221.19342C 185.20242 221.1659 189.59906 221.21655 193.99568 221.26721z" stroke="none" fill="#02B9E6" fill-rule="nonzero" />
        <path d="M193.00015 166.97272C 197.62726 156.73717 202.2052 146.47902 206.89415 136.27188C 212.55563 123.94758 218.31128 111.66653 224.08878 98.977936C 227.0939 101.816444 230.03645 105.04378 232.7413 108.75427C 231.3382 110.81762 229.88637 112.26083 229.05457 114.00051C 224.18788 124.1791 219.39284 134.39365 214.7204 144.66284C 211.36153 152.04501 208.23166 159.53139 204.54575 167.05833C 200.39462 167.08784 196.69739 167.03029 193.00015 166.97272z" stroke="none" fill="#01AFDF" fill-rule="nonzero" />
        <path d="M180.01556 221.2716C 179.36624 223.8017 179.08162 226.49931 178.00871 228.83482C 170.7254 244.68929 163.2601 260.46008 155.91223 276.28513C 155.37212 277.4484 155.29184 278.82523 154.99646 280.4875C 150.96193 281.22906 146.92874 281.5859 142.44745 281.48328C 142.36726 279.60483 142.53023 278.09116 143.13553 276.78195C 148.05605 266.1393 153.17197 255.58583 157.99991 244.90196C 161.52216 237.10747 164.69812 229.1565 168.48373 221.21182C 172.63121 221.18944 176.3234 221.23053 180.01556 221.2716z" stroke="none" fill="#01AFDF" fill-rule="nonzero" />
        <path d="M149.99915 62.167984C 152.08289 62.42292 154.16661 62.677853 156.62387 63.455414C 156.39352 66.182686 156.06477 68.510735 155.14034 70.571594C 149.83826 82.39189 144.39482 94.14879 138.60083 106.01633C 137.2053 107.24522 135.62086 108.25695 135.33855 109.552444C 134.81668 111.94717 135.0577 114.50813 134.6252 117.041016C 133.24829 118.29523 131.91005 119.35844 131.25499 120.74452C 124.80498 134.39265 118.5219 148.11992 112.01735 161.74161C 111.36561 163.10645 109.56554 163.92296 108.217804 164.5339C 108.19048 159.04881 108.24378 154.02377 108.65376 148.99026C 110.47177 147.37752 112.39649 146.00008 113.31249 144.12883C 116.88079 136.83945 120.08411 129.3725 123.506096 122.01014C 130.70363 106.52481 138.03839 91.10255 145.12689 75.567726C 147.09364 71.25751 148.39339 66.64292 149.99915 62.167984z" stroke="none" fill="#0067AB" fill-rule="nonzero" />
        <path d="M168.02844 221.27527C 164.69812 229.1565 161.52216 237.10747 157.99991 244.90196C 153.17197 255.58583 148.05605 266.1393 143.13553 276.78195C 142.53023 278.09116 142.36726 279.60483 141.99802 281.40738C 138.26187 281.5349 134.52704 281.27887 130.3956 280.5005C 130.30966 278.70453 130.41653 277.3353 130.96216 276.17184C 137.0328 263.22754 143.28291 250.3662 149.23436 237.36789C 151.48813 232.44557 153.09544 227.22726 155.45651 222.0698C 159.95322 221.75557 163.99083 221.51543 168.02844 221.27527z" stroke="none" fill="#00A6D8" fill-rule="nonzero" />
        <path d="M243.21483 126.52766C 242.10983 128.41267 240.62123 129.79807 239.82228 131.50606C 228.18854 156.377 216.64703 181.2911 204.60251 206.62874C 201.74666 207.0135 199.37183 206.96443 197.00404 206.54306C 198.69215 202.40721 200.50986 198.6975 202.01889 194.86618C 203.8173 190.30017 205.35101 185.6299 207.39902 180.91061C 208.57187 179.85085 209.82787 178.97112 210.01805 177.90184C 210.41711 175.65819 210.25578 173.31487 210.72679 170.99347C 212.07193 170.18935 213.41814 169.59631 213.89728 168.5903C 221.30421 153.0386 228.56047 137.41507 235.99095 121.87479C 236.58813 120.625786 238.20476 119.86421 239.34763 118.87613C 240.61574 121.310104 241.88383 123.74407 243.21483 126.52766z" stroke="none" fill="#01BEEA" fill-rule="nonzero" />
        <path d="M154.99744 222.14389C 153.09544 227.22726 151.48813 232.44557 149.23436 237.36789C 143.28291 250.3662 137.0328 263.22754 130.96216 276.17184C 130.41653 277.3353 130.30966 278.70453 129.9985 280.35345C 126.25401 280.17596 122.51002 279.6232 118.42638 278.6007C 123.87436 265.78516 129.81877 253.50945 135.38503 241.06459C 138.26707 234.62099 140.47899 227.87764 143.40503 221.19653C 147.5434 221.46355 151.27042 221.80371 154.99744 222.14389z" stroke="none" fill="#029DD2" fill-rule="nonzero" />
        <path d="M142.99365 221.2697C 140.47899 227.87764 138.26707 234.62099 135.38503 241.06459C 129.81877 253.50945 123.87436 265.78516 118.04117 278.47937C 114.45842 277.81607 110.92124 276.80438 107.26621 275.20767C 113.1758 261.91302 119.31128 249.2529 125.176 236.4686C 127.43329 231.54803 129.07445 226.3448 131.4499 221.18184C 135.6002 221.1521 139.29694 221.2109 142.99365 221.2697z" stroke="none" fill="#0092CA" fill-rule="nonzero" />
        <path d="M86.5974 77.90244C 86.36933 80.05254 86.131905 82.430725 85.1781 84.474594C 69.82902 117.36542 54.401073 150.2195 38.934525 183.0553C 38.118145 184.7885 36.799286 186.28502 35.37075 187.94557C 34.584126 184.63683 34.14109 181.27425 34.111313 177.32907C 35.75364 175.00757 37.258186 173.4007 38.165726 171.50761C 42.97682 161.4719 47.648094 151.369 52.348606 141.28043C 59.083363 126.8258 65.88469 112.40121 72.47826 97.88235C 74.571724 93.27257 76.092804 88.40285 77.875824 83.652084C 80.66879 81.75972 83.461754 79.86735 86.5974 77.90244z" stroke="none" fill="#003688" fill-rule="nonzero" />
        <path d="M189.85895 72.36611C 185.57816 82.72572 181.1304 92.90156 176.4643 102.97628C 168.84912 119.41844 161.1267 135.8114 153.33421 152.1702C 152.63225 153.64388 151.09016 154.71738 149.50665 155.5239C 149.12633 149.38017 149.17758 143.68929 149.59422 137.99046C 150.94353 137.26512 152.38058 136.76477 152.84373 135.7979C 160.34016 120.14806 167.79115 104.47515 175.07513 88.72548C 177.97826 82.44826 180.45035 75.971695 183.11865 69.585884C 185.2771 70.43623 187.43552 71.286575 189.85895 72.36611z" stroke="none" fill="#0181BD" fill-rule="nonzero" />
        <path d="M66.22387 250.26538C 67.06327 248.65324 68.26945 247.46597 68.946724 246.02937C 75.86648 231.3516 82.65587 216.6122 89.614746 201.95319C 90.476944 200.13693 92.11264 198.68788 93.86865 197.4925C 94.30487 205.47362 94.262344 213.0309 94.140686 220.97145C 90.77123 228.433 87.42788 235.48727 84.20754 242.59726C 81.67796 248.18213 79.30036 253.83583 76.855255 259.45895C 73.35188 256.4975 69.84851 253.53601 66.22387 250.26538z" stroke="none" fill="#006DAF" fill-rule="nonzero" />
        <path d="M130.99632 221.27037C 129.07445 226.3448 127.43329 231.54803 125.176 236.4686C 119.31128 249.2529 113.1758 261.91302 107.00475 274.9693C 103.695854 274.18057 100.53057 273.0452 97.16843 271.29132C 99.79895 264.4778 102.63848 258.2883 105.45098 252.08652C 109.975334 242.10997 114.48186 232.12534 119.41635 222.06763C 123.55663 221.75087 127.276474 221.51062 130.99632 221.27037z" stroke="none" fill="#018AC4" fill-rule="nonzero" />
        <path d="M239.24179 118.53636C 238.20476 119.86421 236.58813 120.625786 235.99095 121.87479C 228.56047 137.41507 221.30421 153.0386 213.89728 168.5903C 213.41814 169.59631 212.07193 170.18935 210.67105 170.62946C 210.6683 165.72913 206.95271 167.7369 204.99963 166.97127C 208.23166 159.53139 211.36153 152.04501 214.7204 144.66284C 219.39284 134.39365 224.18788 124.1791 229.05457 114.00051C 229.88637 112.26083 231.3382 110.81762 232.82391 109.08957C 235.14146 112.02666 237.1387 115.111626 239.24179 118.53636z" stroke="none" fill="#00B7E4" fill-rule="nonzero" />
        <path d="M118.99591 222.14412C 114.48186 232.12534 109.975334 242.10997 105.45098 252.08652C 102.63848 258.2883 99.79895 264.4778 96.91427 271.06772C 93.684044 269.8667 90.5111 268.2708 87.19273 266.02295C 91.11658 256.7348 95.32652 248.16121 99.204834 239.44012C 101.71916 233.78622 103.74921 227.91695 106.454254 222.06754C 110.94014 222.04196 114.968025 222.09303 118.99591 222.14412z" stroke="none" fill="#0181BD" fill-rule="nonzero" />
        <path d="M33.1611 164.99911C 34.996826 145.8488 40.340813 127.80069 51.263836 111.84387C 56.013165 104.90585 61.982437 98.802925 67.70302 92.60319C 67.11416 95.70012 66.505684 98.64617 65.27995 101.30799C 56.34281 120.71587 47.34647 140.09749 38.169384 159.39253C 37.136517 161.56416 34.860584 163.14455 33.1611 164.99911z" stroke="none" fill="#043184" fill-rule="nonzero" />
        <path d="M182.8541 69.37355C 180.45035 75.971695 177.97826 82.44826 175.07513 88.72548C 167.79115 104.47515 160.34016 120.14806 152.84373 135.7979C 152.38058 136.76477 150.94353 137.26512 149.51584 137.52873C 149.10109 131.71593 149.13013 126.356926 149.5187 120.989975C 151.03812 119.74421 152.59137 118.69646 153.29573 117.23857C 159.04958 105.32906 164.71829 93.37677 170.25156 81.363174C 172.3812 76.73937 174.09303 71.92314 175.99522 67.19458C 178.19333 67.85013 180.39143 68.50568 182.8541 69.37355z" stroke="none" fill="#007DBB" fill-rule="nonzero" />
        <path d="M105.99625 222.14417C 103.74921 227.91695 101.71916 233.78622 99.204834 239.44012C 95.32652 248.16121 91.11658 256.7348 87.0049 265.73865C 83.709435 264.06998 80.45638 262.0337 77.0293 259.72815C 79.30036 253.83583 81.67796 248.18213 84.20754 242.59726C 87.42788 235.48727 90.77123 228.433 94.45685 221.25299C 98.56685 221.48224 102.28155 221.8132 105.99625 222.14417z" stroke="none" fill="#0176B6" fill-rule="nonzero" />
        <path d="M95.99782 108.90225C 101.40409 96.78094 106.83498 84.67047 112.189644 72.5264C 112.97724 70.74017 113.40316 68.79448 113.99724 66.53842C 118.39893 65.1541 122.79981 64.1539 127.539734 63.577003C 125.379524 69.742744 122.90828 75.497574 120.37469 81.22483C 116.24203 90.566826 112.068695 99.89083 107.45883 109.184044C 103.33604 109.06453 99.66692 108.98339 95.99782 108.90225z" stroke="none" fill="#00509A" fill-rule="nonzero" />
        <path d="M107.91252 109.22243C 112.068695 99.89083 116.24203 90.566826 120.37469 81.22483C 122.90828 75.497574 125.379524 69.742744 127.934326 63.65021C 130.72087 62.885227 133.45186 62.47033 136.59079 62.514267C 136.59836 65.0678 136.60072 67.34807 135.73456 69.22818C 128.04808 85.91227 120.25885 102.54998 112.31462 119.11248C 111.68896 120.416885 109.66884 121.05242 108.21562 121.54405C 108.06048 117.133675 107.9865 113.178055 107.91252 109.22243z" stroke="none" fill="#0059A1" fill-rule="nonzero" />
        <path d="M149.57742 62.078957C 148.39339 66.64292 147.09364 71.25751 145.12689 75.567726C 138.03839 91.10255 130.70363 106.52481 123.506096 122.01014C 120.08411 129.3725 116.88079 136.83945 113.31249 144.12883C 112.39649 146.00008 110.47177 147.37752 108.57283 148.53317C 108.18928 144.0557 108.24335 140.02686 108.64853 135.98715C 110.299545 134.6145 112.06231 133.47238 112.82872 131.85744C 121.78253 112.99019 130.65851 94.08491 139.37358 75.10633C 141.28186 70.950714 142.47554 66.46695 143.99832 62.134308C 145.71744 62.086178 147.43657 62.03805 149.57742 62.078957z" stroke="none" fill="#0162A8" fill-rule="nonzero" />
        <path d="M33.087738 165.44916C 34.860584 163.14455 37.136517 161.56416 38.169384 159.39253C 47.34647 140.09749 56.34281 120.71587 65.27995 101.30799C 66.505684 98.64617 67.11416 95.70012 68.01689 92.491646C 71.09629 89.37246 74.16721 86.64729 77.55698 83.7871C 76.092804 88.40285 74.571724 93.27257 72.47826 97.88235C 65.88469 112.40121 59.083363 126.8258 52.348606 141.28043C 47.648094 151.369 42.97682 161.4719 38.165726 171.50761C 37.258186 173.4007 35.75364 175.00757 34.205948 176.89496C 33.596344 173.32867 33.305363 169.61394 33.087738 165.44916z" stroke="none" fill="#013386" fill-rule="nonzero" />
        <path d="M175.66751 66.99683C 174.09303 71.92314 172.3812 76.73937 170.25156 81.363174C 164.71829 93.37677 159.04958 105.32906 153.29573 117.23857C 152.59137 118.69646 151.03812 119.74421 149.44763 120.529816C 148.97256 115.47935 148.92812 110.88111 148.94025 105.90523C 152.33185 98.35086 155.76039 91.21568 158.97372 83.984886C 161.77713 77.67652 164.338 71.26038 167.00603 64.89186C 169.78395 65.5276 172.56186 66.163345 175.66751 66.99683z" stroke="none" fill="#0176B6" fill-rule="nonzero" />
        <path d="M143.56572 62.056374C 142.47554 66.46695 141.28186 70.950714 139.37358 75.10633C 130.65851 94.08491 121.78253 112.99019 112.82872 131.85744C 112.06231 133.47238 110.299545 134.6145 108.56764 135.52869C 108.18938 130.72035 108.24309 126.35958 108.2968 121.99881C 109.66884 121.05242 111.68896 120.416885 112.31462 119.11248C 120.25885 102.54998 128.04808 85.91227 135.73456 69.22818C 136.60072 67.34807 136.59836 65.0678 136.99847 62.570923C 139.04317 62.10531 141.08813 62.04187 143.56572 62.056374z" stroke="none" fill="#005EA4" fill-rule="nonzero" />
        <path d="M166.67894 64.69912C 164.338 71.26038 161.77713 77.67652 158.97372 83.984886C 155.76039 91.21568 152.33185 98.35086 148.49667 105.84924C 144.99748 106.08967 141.99841 106.00843 138.99933 105.92719C 144.39482 94.14879 149.83826 82.39189 155.14034 70.571594C 156.06477 68.510735 156.39352 66.182686 156.99728 63.583218C 160.11542 63.627728 163.23363 64.067055 166.67894 64.69912z" stroke="none" fill="#006DAF" fill-rule="nonzero" />
        <path d="M108.21562 121.54406C 108.24309 126.35958 108.18938 130.72035 108.21654 135.53958C 108.24335 140.02686 108.18928 144.0557 108.21614 148.54163C 108.24378 154.02377 108.19048 159.04881 108.13463 164.99608C 108.18713 172.27608 108.242195 178.63385 108.213326 185.45395C 108.12939 192.89998 108.12939 199.8837 108.12939 206.91501C 109.735115 206.91501 110.86692 206.91501 112.455154 207.0015C 116.9396 207.03067 120.96761 206.97333 125.452225 207.00325C 129.93858 207.03247 133.96834 206.97443 138.45625 207.00105C 143.27454 207.02867 147.63467 206.9716 152.45303 207.00015C 157.27257 207.02847 161.63388 206.97118 166.44992 206.9974C 170.60138 207.02512 174.2981 206.96931 178.44313 206.99704C 181.92664 207.02522 184.96182 206.96988 188.4411 206.99667C 191.58911 207.02432 194.29305 206.96983 196.99698 206.91536C 199.37183 206.96443 201.74666 207.0135 204.56055 206.98416C 205.56898 211.32646 206.13837 215.74716 206.82693 221.0931C 202.29993 221.0931 198.60536 221.0931 194.45325 221.18015C 189.59906 221.21655 185.20242 221.1659 180.41068 221.19342C 176.3234 221.23053 172.63121 221.18944 168.48373 221.21182C 163.99083 221.51543 159.95322 221.75557 155.45651 222.0698C 151.27042 221.80371 147.5434 221.46355 143.40501 221.19653C 139.29694 221.2109 135.6002 221.1521 131.4499 221.18184C 127.276474 221.51062 123.55663 221.75087 119.41635 222.06763C 114.968025 222.09303 110.94014 222.04196 106.454254 222.06752C 102.28155 221.8132 98.56685 221.48224 94.53598 220.86974C 94.262344 213.0309 94.30487 205.47362 94.23122 197.45973C 94.19403 188.30722 94.273026 179.61131 94.23379 170.45923C 94.1954 161.64023 94.27525 153.27737 94.23491 144.45882C 94.196465 135.30675 94.27821 126.610374 94.23787 117.458786C 94.504845 114.39862 94.89393 111.79368 95.64041 109.045494C 99.66692 108.98339 103.33604 109.06453 107.45883 109.184044C 107.9865 113.178055 108.06048 117.133675 108.21562 121.54406z" stroke="none" fill="#F7FBFD" fill-rule="nonzero" />
        <path d="M138.60083 106.01633C 141.99841 106.00843 144.99748 106.08967 148.44012 106.22689C 148.92812 110.88111 148.97256 115.47935 149.08809 120.53776C 149.13013 126.356926 149.10109 131.71593 149.15045 137.53667C 149.17758 143.68929 149.12633 149.38017 149.15161 155.53317C 149.16429 157.46938 149.05144 158.94322 149.04497 160.41754C 149.01509 167.22675 149.02568 167.22679 156.56105 167.06165C 160.69684 167.03003 164.39424 167.08824 168.5452 167.05783C 172.69637 167.0279 176.394 167.0866 180.54546 167.05792C 184.69687 167.02896 188.39445 167.08737 192.5461 167.05925C 196.69739 167.03029 200.39462 167.08784 204.54575 167.05833C 206.95271 167.7369 210.6683 165.72913 210.2688 170.64844C 210.25578 173.31487 210.41711 175.65819 210.01805 177.90184C 209.82787 178.97112 208.57187 179.85085 206.95587 180.82196C 203.40854 180.88612 200.70396 180.94473 197.55232 180.91393C 194.06955 180.8845 191.03384 180.94453 187.54468 180.91516C 183.39352 180.8851 179.69583 180.94443 175.54095 180.91284C 170.72226 180.88222 166.36076 180.94254 161.54198 180.91245C 156.72353 180.88148 152.36237 180.94092 147.54663 180.9075C 143.09987 180.77844 139.10773 180.74223 135.15399 180.25739C 135.1223 173.5391 135.05217 167.26945 135.07538 160.53902C 135.10681 152.38557 135.04492 144.69293 135.0758 136.53961C 135.10603 129.71925 135.04347 123.35955 134.98091 116.99985C 135.0577 114.50813 134.81668 111.94717 135.33855 109.552444C 135.62086 108.25695 137.2053 107.24522 138.60083 106.01633z" stroke="none" fill="#F5FAFD" fill-rule="nonzero" />
        <path d="M134.6252 117.041016C 135.04347 123.35955 135.10603 129.71925 134.73158 136.59302C 133.28223 138.55878 132.04892 139.90433 131.29225 141.4789C 124.91636 154.74696 118.68707 168.08592 112.23108 181.31442C 111.495705 182.82121 109.635765 183.77919 108.297264 184.99164C 108.242195 178.63385 108.18713 172.27608 108.21524 165.45612C 109.56554 163.92296 111.36561 163.10645 112.01735 161.74161C 118.5219 148.11992 124.80498 134.39265 131.25499 120.74452C 131.91005 119.35844 133.24829 118.29523 134.6252 117.041016z" stroke="none" fill="#006DAF" fill-rule="nonzero" />
        <path d="M197.99939 181.00336C 200.70396 180.94473 203.40854 180.88612 206.55624 180.91615C 205.35101 185.6299 203.8173 190.30017 202.01889 194.86618C 200.50986 198.6975 198.69215 202.40721 197.00404 206.54306C 194.29305 206.96983 191.58911 207.02432 188.44904 206.61646C 189.6987 202.05064 191.42314 197.96252 193.05956 193.83945C 194.75072 189.57843 196.35635 185.28348 197.99939 181.00336z" stroke="none" fill="#00B7E4" fill-rule="nonzero" />
        <path d="M108.213326 185.45395C 109.635765 183.77919 111.495705 182.82121 112.23108 181.31442C 118.68707 168.08592 124.91636 154.74696 131.29225 141.4789C 132.04892 139.90433 133.28223 138.55878 134.63881 137.05367C 135.04492 144.69293 135.10681 152.38557 134.73405 160.59094C 131.95705 165.21318 129.34328 169.19424 127.32515 173.45728C 122.07675 184.54378 117.089905 195.75409 111.99872 206.91501C 110.86692 206.91501 109.735115 206.91501 108.12939 206.91501C 108.12939 199.8837 108.12939 192.89998 108.213326 185.45395z" stroke="none" fill="#0176B6" fill-rule="nonzero" />
        <path d="M112.455154 207.0015C 117.089905 195.75409 122.07675 184.54378 127.32515 173.45728C 129.34328 169.19424 131.95705 165.21318 134.64072 161.05173C 135.05217 167.26945 135.1223 173.5391 135.11877 180.65933C 134.6633 182.75063 134.37126 184.02774 133.88493 185.22601C 130.94649 192.46602 127.96364 199.68799 124.99562 206.91599C 120.96761 206.97333 116.9396 207.03067 112.455154 207.0015z" stroke="none" fill="#007DBB" fill-rule="nonzero" />
        <path d="M161.99928 181.00284C 166.36076 180.94254 170.72226 180.88222 175.53596 181.29092C 174.91333 184.33972 173.79665 186.903 172.77216 189.50264C 170.48871 195.29675 168.25133 201.10901 165.99518 206.91388C 161.63388 206.97118 157.27257 207.02847 152.45525 206.61087C 152.50325 204.41672 152.85667 202.63515 153.5377 200.98914C 156.30354 194.30441 159.16995 187.6613 161.99928 181.00284z" stroke="none" fill="#029DD2" fill-rule="nonzero" />
        <path d="M161.54198 180.91245C 159.16995 187.6613 156.30354 194.30441 153.5377 200.98914C 152.85667 202.63515 152.50325 204.41672 151.99701 206.52525C 147.63467 206.9716 143.27454 207.02867 138.4632 206.62625C 138.58353 204.63358 139.12408 203.088 139.73196 201.56935C 142.47798 194.70885 145.24304 187.85597 148.00122 181.00034C 152.36237 180.94092 156.72353 180.88148 161.54198 180.91245z" stroke="none" fill="#0092CA" fill-rule="nonzero" />
        <path d="M147.54663 180.9075C 145.24304 187.85597 142.47798 194.70885 139.73196 201.56935C 139.12408 203.088 138.58353 204.63358 138.00504 206.54156C 133.96834 206.97443 129.93858 207.03247 125.452225 207.00325C 127.96364 199.68799 130.94649 192.46602 133.88493 185.22601C 134.37126 184.02774 134.6633 182.75063 135.08035 181.10797C 139.10773 180.74223 143.09987 180.77844 147.54663 180.9075z" stroke="none" fill="#018AC4" fill-rule="nonzero" />
        <path d="M166.44992 206.9974C 168.25133 201.10901 170.48871 195.29675 172.77216 189.50264C 173.79665 186.903 174.91333 184.33972 175.99316 181.38184C 179.69583 180.94443 183.39352 180.8851 187.53976 181.29321C 186.91345 184.3403 185.79675 186.90347 184.77222 189.50296C 182.48865 195.29686 180.25111 201.10889 177.99481 206.91351C 174.2981 206.96931 170.60138 207.02512 166.44992 206.9974z" stroke="none" fill="#00A6D8" fill-rule="nonzero" />
        <path d="M178.44313 206.99706C 180.25111 201.10889 182.48865 195.29686 184.77222 189.50296C 185.79675 186.90347 186.91345 184.3403 187.99323 181.3826C 191.03384 180.94453 194.06955 180.8845 197.55232 180.91393C 196.35635 185.28348 194.75072 189.57843 193.05956 193.83945C 191.42314 197.96252 189.6987 202.05064 188.00496 206.53433C 184.96182 206.96988 181.92664 207.02522 178.44313 206.99706z" stroke="none" fill="#01AFDF" fill-rule="nonzero" />
	</g>
</g>
</svg>
